# xmcd
# Track frame offsets:
# 150
# 12925
# 25860
# 38735
# 52008
# 65820
# 77545
# 90443
# 104200
# 118990
# 132005
# 146003
# 158088
# 169828
#
# Disc length: 2440 seconds
# Revision: 2
# Processed by: cddbd v1.4PL0 Copyright (c) Steve Scherf et al.
# Submitted via: VisiTrax 2.9.6.190 - For more info visit www.synapsa.com
#
DISCID=bd09860e
DTITLE=Georgia Tom Dorsey - Come On Mama Do That Dance (1928-1932)
DYEAR=1992
DGENRE=Blues
TTITLE0=Mississippi Bottom Blues
TTITLE1=Jive Man Blues: w/ Frankie "Half Pint" Jaxon
TTITLE2=How Can You Have The Blues: w/ Kansas City Kitty
TTITLE3=But They Got It Fixed Right On: w/ Tampa Red
TTITLE4=Crow Jane Alley: w/ Tampa Red
TTITLE5=Gym's Too Much For Me: w/ Kansas City Kitty
TTITLE6=If You See My Saviour
TTITLE7=Rollin' Mill Stomp
TTITLE8=Some Cold Rainy Day: w/ Bertha "Chippie" Hill
TTITLE9=Come On Mama: w/ Jane Lucas
TTITLE10=Devilish Blues: w/ Stovepipe Johnson
TTITLE11=Second-Handed Woman Blues
TTITLE12=The Doctor's Blues: w/ Kansas City Kitty
TTITLE13=How About You?
EXTD=Yazoo, 1041
EXTT0=
EXTT1=Frankie Jaxon vocal
EXTT2=Kansas City Kitty and G.T. vocal
EXTT3=Tampa Red and G.T. vocal
EXTT4=Tampa Red and G.T. vocal
EXTT5=Kansas City Kitty and G.T. vocal
EXTT6=
EXTT7=
EXTT8=Bertha Chippie Hill vocal
EXTT9=Jane Lucas and G.T. vocal
EXTT10=Stovepipe Johnson vocal
EXTT11=
EXTT12=Kansas City Kitty and G.T. vocal
EXTT13=
PLAYORDER=
